<svg xmlns="http://www.w3.org/2000/svg" xmlns:xlink="http://www.w3.org/1999/xlink" width="710pt" height="655pt" viewBox="0 0 710.21 655.48"><g id="graph0" class="graph" transform="scale(1 1) rotate(0) translate(4 651.4802)"><title>G</title><polygon fill="#fff" stroke="transparent" points="-4 4 -4 -651.48 706.206 -651.48 706.206 4 -4 4"/><g id="node1" class="node"><title>Operand</title><ellipse cx="235.052" cy="-162" fill="none" stroke="#000" rx="40.893" ry="18"/><text x="235.052" y="-158.3" fill="#000" font-family="Times,serif" font-size="14" text-anchor="middle">Operand</text></g><g id="node2" class="node"><title>Constant</title><ellipse cx="307.051" cy="-90" fill="none" stroke="#000" rx="42.494" ry="18"/><text x="307.051" y="-86.3" fill="#000" font-family="Times,serif" font-size="14" text-anchor="middle">Constant</text></g><g id="edge1" class="edge"><title>Operand-&gt;Constant</title><path fill="none" stroke="#000" d="M251.7507,-145.3008C261.1107,-135.9408 272.942,-124.1095 283.2569,-113.7945"/><polygon fill="#000" stroke="#000" points="285.847 -116.155 290.443 -106.609 280.897 -111.205 285.847 -116.155"/></g><g id="node3" class="node"><title>Place</title><ellipse cx="163.052" cy="-90" fill="none" stroke="#000" rx="29.795" ry="18"/><text x="163.052" y="-86.3" fill="#000" font-family="Times,serif" font-size="14" text-anchor="middle">Place</text></g><g id="edge2" class="edge"><title>Operand-&gt;Place</title><path fill="none" stroke="#000" d="M218.3523,-145.3008C208.7249,-135.6734 196.4829,-123.4314 185.9657,-112.9142"/><polygon fill="#000" stroke="#000" points="188.22 -110.219 178.674 -105.623 183.271 -115.169 188.22 -110.219"/><text x="206.352" y="-134.101" fill="#000" font-family="Times,serif" font-size="14" text-anchor="middle">read</text></g><g id="node4" class="node"><title>Projection</title><ellipse cx="163.052" cy="-18" fill="none" stroke="#000" rx="46.593" ry="18"/><text x="163.052" y="-14.3" fill="#000" font-family="Times,serif" font-size="14" text-anchor="middle">Projection</text></g><g id="edge3" class="edge"><title>Place-&gt;Projection</title><path fill="none" stroke="#000" d="M157.1358,-72.2022C156.3519,-64.3864 156.1204,-55.0171 156.4412,-46.2836"/><polygon fill="#000" stroke="#000" points="159.947 -46.3 157.107 -36.093 152.962 -45.844 159.947 -46.3"/></g><g id="node5" class="node"><title>LocalId</title><ellipse cx="266.051" cy="-18" fill="none" stroke="#000" rx="38.194" ry="18"/><text x="266.051" y="-14.3" fill="#000" font-family="Times,serif" font-size="14" text-anchor="middle">LocalId</text></g><g id="edge5" class="edge"><title>Place-&gt;LocalId</title><path fill="none" stroke="#000" d="M182.9109,-76.1177C197.9447,-65.6086 218.8518,-50.994 235.939,-39.0495"/><polygon fill="#000" stroke="#000" points="238.284 -41.681 244.475 -33.083 234.274 -35.943 238.284 -41.681"/></g><g id="edge4" class="edge"><title>Projection-&gt;Place</title><path fill="none" stroke="#000" d="M168.9965,-36.0931C169.7664,-43.9477 169.9841,-53.3282 169.6494,-62.0453"/><polygon fill="#000" stroke="#000" points="166.145 -61.99 168.967 -72.202 173.13 -62.459 166.145 -61.99"/></g><g id="node6" class="node"><title>Rvalue</title><ellipse cx="204.052" cy="-323.74" fill="none" stroke="#000" rx="35.995" ry="18"/><text x="204.052" y="-320.04" fill="#000" font-family="Times,serif" font-size="14" text-anchor="middle">Rvalue</text></g><g id="node7" class="node"><title>Rvalue\nAggregate</title><ellipse cx="69.052" cy="-242.87" fill="none" stroke="#000" rx="51.738" ry="26.741"/><text x="69.052" y="-246.67" fill="#000" font-family="Times,serif" font-size="14" text-anchor="middle">Rvalue</text><text x="69.052" y="-231.67" fill="#000" font-family="Times,serif" font-size="14" text-anchor="middle">Aggregate</text></g><g id="edge6" class="edge"><title>Rvalue-&gt;Rvalue\nAggregate</title><path fill="none" stroke="#000" d="M180.8442,-309.8381C161.9431,-298.5156 134.7462,-282.2237 111.9105,-268.5442"/><polygon fill="#000" stroke="#000" points="113.454 -265.389 103.077 -263.252 109.857 -271.394 113.454 -265.389"/></g><g id="node8" class="node"><title>Rvalue\nBinaryOp</title><ellipse cx="188.052" cy="-242.87" fill="none" stroke="#000" rx="49.495" ry="26.741"/><text x="188.052" y="-246.67" fill="#000" font-family="Times,serif" font-size="14" text-anchor="middle">Rvalue</text><text x="188.052" y="-231.67" fill="#000" font-family="Times,serif" font-size="14" text-anchor="middle">BinaryOp</text></g><g id="edge7" class="edge"><title>Rvalue-&gt;Rvalue\nBinaryOp</title><path fill="none" stroke="#000" d="M200.5006,-305.7924C198.9755,-298.0839 197.134,-288.7767 195.3406,-279.7121"/><polygon fill="#000" stroke="#000" points="198.73 -278.81 193.356 -269.679 191.863 -280.168 198.73 -278.81"/></g><g id="node9" class="node"><title>Rvalue\nUnaryOp</title><ellipse cx="303.051" cy="-242.87" fill="none" stroke="#000" rx="47.253" ry="26.741"/><text x="303.051" y="-246.67" fill="#000" font-family="Times,serif" font-size="14" text-anchor="middle">Rvalue</text><text x="303.051" y="-231.67" fill="#000" font-family="Times,serif" font-size="14" text-anchor="middle">UnaryOp</text></g><g id="edge8" class="edge"><title>Rvalue-&gt;Rvalue\nUnaryOp</title><path fill="none" stroke="#000" d="M223.1397,-308.1476C235.7504,-297.8463 252.6606,-284.0328 267.6777,-271.7658"/><polygon fill="#000" stroke="#000" points="270.256 -274.179 275.786 -265.142 265.828 -268.758 270.256 -274.179"/></g><g id="node10" class="node"><title>Rvalue\n...</title><ellipse cx="407.051" cy="-242.87" fill="none" stroke="#000" rx="38.782" ry="26.741"/><text x="407.051" y="-246.67" fill="#000" font-family="Times,serif" font-size="14" text-anchor="middle">Rvalue</text><text x="407.051" y="-231.67" fill="#000" font-family="Times,serif" font-size="14" text-anchor="middle">...</text></g><g id="edge9" class="edge"><title>Rvalue-&gt;Rvalue\n...</title><path fill="none" stroke="#000" d="M235.256,-314.6368C267.0067,-304.9668 317.3424,-288.5057 359.0515,-269.7401 362.195,-268.3258 365.4063,-266.7762 368.6037,-265.1575"/><polygon fill="#000" stroke="#000" points="370.293 -268.224 377.51 -260.468 367.031 -262.03 370.293 -268.224"/></g><g id="edge10" class="edge"><title>Rvalue\nAggregate-&gt;Operand</title><path fill="none" stroke="#000" d="M107.1352,-224.3168C134.5352,-210.9684 171.2807,-193.0672 198.3573,-179.8763"/><polygon fill="#000" stroke="#000" points="200.043 -182.948 207.5 -175.422 196.977 -176.655 200.043 -182.948"/><text x="204" y="-179.222" fill="#000" font-family="Times,serif" font-size="14" text-anchor="middle">*</text></g><g id="edge11" class="edge"><title>Rvalue\nBinaryOp-&gt;Operand</title><path fill="none" stroke="#000" d="M203.1813,-216.8371C208.4947,-207.6947 214.4647,-197.4225 219.7889,-188.2614"/><polygon fill="#000" stroke="#000" points="222.851 -189.958 224.85 -179.554 216.799 -186.441 222.851 -189.958"/><text x="221.35" y="-183.354" fill="#000" font-family="Times,serif" font-size="14" text-anchor="middle">2</text></g><g id="edge12" class="edge"><title>Rvalue\nUnaryOp-&gt;Operand</title><path fill="none" stroke="#000" d="M282.6492,-218.6064C274.253,-208.621 264.5321,-197.0602 256.0725,-186.9996"/><polygon fill="#000" stroke="#000" points="258.723 -184.713 249.608 -179.311 253.365 -189.218 258.723 -184.713"/></g><g id="node11" class="node"><title>Statement\nAssignment</title><ellipse cx="204.052" cy="-404.61" fill="none" stroke="#000" rx="57.965" ry="26.741"/><text x="204.052" y="-408.41" fill="#000" font-family="Times,serif" font-size="14" text-anchor="middle">Statement</text><text x="204.052" y="-393.41" fill="#000" font-family="Times,serif" font-size="14" text-anchor="middle">Assignment</text></g><g id="edge13" class="edge"><title>Statement\nAssignment-&gt;Place</title><path fill="none" stroke="#000" d="M158.0853,-387.9226C110.712,-367.9515 39.4797,-329.5163 8.0515,-269.7401 -28.3835,-200.4412 74.6545,-134.9955 130.1983,-105.8591"/><polygon fill="#000" stroke="#000" points="132.028 -108.854 139.325 -101.173 128.831 -102.627 132.028 -108.854"/><text x="144.085" y="-376.723" fill="#000" font-family="Times,serif" font-size="14" text-anchor="middle">write</text></g><g id="edge14" class="edge"><title>Statement\nAssignment-&gt;Rvalue</title><path fill="none" stroke="#000" d="M204.0515,-377.6816C204.0515,-369.4111 204.0515,-360.2888 204.0515,-351.9358"/><polygon fill="#000" stroke="#000" points="207.552 -351.889 204.052 -341.889 200.552 -351.889 207.552 -351.889"/></g><g id="node12" class="node"><title>Statement</title><ellipse cx="346.051" cy="-485.48" fill="none" stroke="#000" rx="46.292" ry="18"/><text x="346.051" y="-481.78" fill="#000" font-family="Times,serif" font-size="14" text-anchor="middle">Statement</text></g><g id="edge15" class="edge"><title>Statement-&gt;Statement\nAssignment</title><path fill="none" stroke="#000" d="M319.6752,-470.4587C300.0617,-459.2887 272.808,-443.7675 249.6863,-430.5996"/><polygon fill="#000" stroke="#000" points="251.146 -427.403 240.725 -425.496 247.682 -433.486 251.146 -427.403"/></g><g id="node13" class="node"><title>Statement\n...</title><ellipse cx="346.051" cy="-404.61" fill="none" stroke="#000" rx="50.41" ry="26.741"/><text x="346.051" y="-408.41" fill="#000" font-family="Times,serif" font-size="14" text-anchor="middle">Statement</text><text x="346.051" y="-393.41" fill="#000" font-family="Times,serif" font-size="14" text-anchor="middle">...</text></g><g id="edge16" class="edge"><title>Statement-&gt;Statement\n...</title><path fill="none" stroke="#000" d="M346.0515,-467.1296C346.0515,-459.5597 346.0515,-450.5002 346.0515,-441.6583"/><polygon fill="#000" stroke="#000" points="349.552 -441.481 346.051 -431.481 342.552 -441.481 349.552 -441.481"/></g><g id="node14" class="node"><title>Block</title><ellipse cx="385.051" cy="-557.48" fill="none" stroke="#000" rx="31.695" ry="18"/><text x="385.051" y="-553.78" fill="#000" font-family="Times,serif" font-size="14" text-anchor="middle">Block</text></g><g id="edge17" class="edge"><title>Block-&gt;Statement</title><path fill="none" stroke="#000" d="M375.6107,-540.051C371.0795,-531.6857 365.5504,-521.4782 360.5052,-512.1641"/><polygon fill="#000" stroke="#000" points="363.517 -510.375 355.676 -503.249 357.362 -513.709 363.517 -510.375"/><text x="352.176" y="-507.049" fill="#000" font-family="Times,serif" font-size="14" text-anchor="middle">*</text></g><g id="node15" class="node"><title>Terminator</title><ellipse cx="519.052" cy="-323.74" fill="none" stroke="#000" rx="50.892" ry="18"/><text x="519.052" y="-320.04" fill="#000" font-family="Times,serif" font-size="14" text-anchor="middle">Terminator</text></g><g id="edge18" class="edge"><title>Block-&gt;Terminator</title><path fill="none" stroke="#000" d="M394.9048,-540.2928C418.0234,-499.9664 475.8876,-399.0322 503.6797,-350.5535"/><polygon fill="#000" stroke="#000" points="506.881 -352.007 508.818 -341.591 500.808 -348.525 506.881 -352.007"/></g><g id="node16" class="node"><title>Terminator\nSwitchInt</title><ellipse cx="519.052" cy="-242.87" fill="none" stroke="#000" rx="55.309" ry="26.741"/><text x="519.052" y="-246.67" fill="#000" font-family="Times,serif" font-size="14" text-anchor="middle">Terminator</text><text x="519.052" y="-231.67" fill="#000" font-family="Times,serif" font-size="14" text-anchor="middle">SwitchInt</text></g><g id="edge19" class="edge"><title>Terminator-&gt;Terminator\nSwitchInt</title><path fill="none" stroke="#000" d="M519.0515,-305.3894C519.0515,-297.8196 519.0515,-288.7601 519.0515,-279.9182"/><polygon fill="#000" stroke="#000" points="522.552 -279.741 519.052 -269.741 515.552 -279.741 522.552 -279.741"/></g><g id="node18" class="node"><title>Terminator\n...</title><ellipse cx="647.052" cy="-242.87" fill="none" stroke="#000" rx="55.309" ry="26.741"/><text x="647.052" y="-246.67" fill="#000" font-family="Times,serif" font-size="14" text-anchor="middle">Terminator</text><text x="647.052" y="-231.67" fill="#000" font-family="Times,serif" font-size="14" text-anchor="middle">...</text></g><g id="edge23" class="edge"><title>Terminator-&gt;Terminator\n...</title><path fill="none" stroke="#000" d="M544.035,-307.9556C561.1466,-297.1446 584.2754,-282.5318 604.2825,-269.8914"/><polygon fill="#000" stroke="#000" points="606.345 -272.728 612.93 -264.428 602.606 -266.81 606.345 -272.728"/></g><g id="edge20" class="edge"><title>Terminator\nSwitchInt-&gt;Operand</title><path fill="none" stroke="#000" d="M478.0996,-224.5602C470.5153,-221.4896 462.6034,-218.4951 455.0515,-216 396.6759,-196.7135 327.5597,-180.8457 282.5872,-171.4129"/><polygon fill="#000" stroke="#000" points="283.036 -167.932 272.534 -169.327 281.614 -174.786 283.036 -167.932"/></g><g id="edge21" class="edge"><title>Terminator\nSwitchInt-&gt;Constant</title><path fill="none" stroke="#000" d="M487.7702,-220.3136C447.2089,-191.0654 376.9492,-140.4022 337.034,-111.6199"/><polygon fill="#000" stroke="#000" points="338.92 -108.665 328.761 -105.655 334.825 -114.343 338.92 -108.665"/><text x="325.261" y="-109.455" fill="#000" font-family="Times,serif" font-size="14" text-anchor="middle">*</text></g><g id="node17" class="node"><title>BlockId</title><ellipse cx="519.052" cy="-162" fill="none" stroke="#000" rx="38.993" ry="18"/><text x="519.052" y="-158.3" fill="#000" font-family="Times,serif" font-size="14" text-anchor="middle">BlockId</text></g><g id="edge22" class="edge"><title>Terminator\nSwitchInt-&gt;BlockId</title><path fill="none" stroke="#000" d="M519.0515,-215.9415C519.0515,-207.6709 519.0515,-198.5487 519.0515,-190.1957"/><polygon fill="#000" stroke="#000" points="522.552 -190.149 519.052 -180.149 515.552 -190.149 522.552 -190.149"/><text x="515.552" y="-183.949" fill="#000" font-family="Times,serif" font-size="14" text-anchor="middle">*</text></g><g id="node19" class="node"><title>Mir</title><ellipse cx="425.051" cy="-629.48" fill="none" stroke="#000" rx="27" ry="18"/><text x="425.051" y="-625.78" fill="#000" font-family="Times,serif" font-size="14" text-anchor="middle">Mir</text></g><g id="edge24" class="edge"><title>Mir-&gt;Block</title><path fill="none" stroke="#000" d="M415.572,-612.4172C410.81,-603.8456 404.9356,-593.2716 399.6162,-583.6968"/><polygon fill="#000" stroke="#000" points="402.657 -581.963 394.741 -574.921 396.538 -585.362 402.657 -581.963"/><text x="391.241" y="-578.721" fill="#000" font-family="Times,serif" font-size="14" text-anchor="middle">*</text></g><g id="node20" class="node"><title>Local</title><ellipse cx="465.051" cy="-557.48" fill="none" stroke="#000" rx="30.595" ry="18"/><text x="465.051" y="-553.78" fill="#000" font-family="Times,serif" font-size="14" text-anchor="middle">Local</text></g><g id="edge25" class="edge"><title>Mir-&gt;Local</title><path fill="none" stroke="#000" d="M434.5309,-612.4172C439.293,-603.8456 445.1674,-593.2716 450.4867,-583.6968"/><polygon fill="#000" stroke="#000" points="453.565 -585.362 455.362 -574.921 447.446 -581.963 453.565 -585.362"/><text x="451.862" y="-578.721" fill="#000" font-family="Times,serif" font-size="14" text-anchor="middle">*</text></g></g></svg>