<svg xmlns="http://www.w3.org/2000/svg" xmlns:xlink="http://www.w3.org/1999/xlink" width="368" height="260pt" viewBox="0 0 276.29 260"><g id="graph0" class="graph" transform="scale(1 1) rotate(0) translate(4 256)"><title>G</title><polygon fill="#fff" stroke="transparent" points="-4 4 -4 -256 272.294 -256 272.294 4 -4 4"/><g id="node1" class="node"><title>Operand</title><ellipse cx="62.747" cy="-162" fill="none" stroke="#000" rx="40.893" ry="18"/><text x="62.747" y="-158.3" fill="#000" font-family="Times,serif" font-size="14" text-anchor="middle">Operand</text></g><g id="node2" class="node"><title>Constant</title><ellipse cx="52.747" cy="-90" fill="none" stroke="#000" rx="42.494" ry="18"/><text x="52.747" y="-86.3" fill="#000" font-family="Times,serif" font-size="14" text-anchor="middle">Constant</text></g><g id="edge1" class="edge"><title>Operand-&gt;Constant</title><path fill="none" stroke="#000" d="M60.2234,-143.8314C59.1539,-136.131 57.8822,-126.9743 56.6936,-118.4166"/><polygon fill="#000" stroke="#000" points="60.147 -117.837 55.304 -108.413 53.213 -118.8 60.147 -117.837"/></g><g id="node3" class="node"><title>Place</title><ellipse cx="142.747" cy="-90" fill="none" stroke="#000" rx="29.795" ry="18"/><text x="142.747" y="-86.3" fill="#000" font-family="Times,serif" font-size="14" text-anchor="middle">Place</text></g><g id="edge2" class="edge"><title>Operand-&gt;Place</title><path fill="none" stroke="#000" d="M80.9001,-145.6621C92.0182,-135.6558 106.3846,-122.726 118.4722,-111.8471"/><polygon fill="#000" stroke="#000" points="120.938 -114.337 126.029 -105.046 116.255 -109.134 120.938 -114.337"/></g><g id="node4" class="node"><title>Projection</title><ellipse cx="142.747" cy="-18" fill="none" stroke="#000" rx="46.593" ry="18"/><text x="142.747" y="-14.3" fill="#000" font-family="Times,serif" font-size="14" text-anchor="middle">Projection</text></g><g id="edge3" class="edge"><title>Place-&gt;Projection</title><path fill="none" stroke="#000" d="M136.8311,-72.2022C136.0473,-64.3864 135.8158,-55.0171 136.1366,-46.2836"/><polygon fill="#000" stroke="#000" points="139.643 -46.3 136.802 -36.093 132.658 -45.844 139.643 -46.3"/></g><g id="node5" class="node"><title>Local</title><ellipse cx="237.747" cy="-18" fill="none" stroke="#000" rx="30.595" ry="18"/><text x="237.747" y="-14.3" fill="#000" font-family="Times,serif" font-size="14" text-anchor="middle">Local</text></g><g id="edge5" class="edge"><title>Place-&gt;Local</title><path fill="none" stroke="#000" d="M161.5158,-75.7751C175.477,-65.194 194.7426,-50.5927 210.4126,-38.7165"/><polygon fill="#000" stroke="#000" points="212.836 -41.271 218.692 -32.442 208.608 -35.693 212.836 -41.271"/></g><g id="edge4" class="edge"><title>Projection-&gt;Place</title><path fill="none" stroke="#000" d="M148.6918,-36.0931C149.4618,-43.9477 149.6794,-53.3282 149.3447,-62.0453"/><polygon fill="#000" stroke="#000" points="145.841 -61.99 148.663 -72.202 152.825 -62.459 145.841 -61.99"/></g><g id="node6" class="node"><title>Rvalue</title><ellipse cx="35.747" cy="-234" fill="none" stroke="#000" rx="35.995" ry="18"/><text x="35.747" y="-230.3" fill="#000" font-family="Times,serif" font-size="14" text-anchor="middle">Rvalue</text></g><g id="edge6" class="edge"><title>Rvalue-&gt;Operand</title><path fill="none" stroke="#000" d="M42.421,-216.2022C45.4715,-208.0675 49.153,-198.2501 52.54,-189.2181"/><polygon fill="#000" stroke="#000" points="55.822 -190.435 56.056 -179.843 49.267 -187.977 55.822 -190.435"/></g><g id="node7" class="node"><title>Assignment</title><ellipse cx="142.747" cy="-234" fill="none" stroke="#000" rx="53.091" ry="18"/><text x="142.747" y="-230.3" fill="#000" font-family="Times,serif" font-size="14" text-anchor="middle">Assignment</text></g><g id="edge8" class="edge"><title>Assignment-&gt;Operand</title><path fill="none" stroke="#000" d="M123.7879,-216.937C113.2012,-207.4089 99.8654,-195.4067 88.3611,-185.0529"/><polygon fill="#000" stroke="#000" points="90.52 -182.287 80.746 -178.199 85.837 -187.49 90.52 -182.287"/></g><g id="edge7" class="edge"><title>Assignment-&gt;Place</title><path fill="none" stroke="#000" d="M142.7468,-215.7623C142.7468,-191.201 142.7468,-147.2474 142.7468,-118.3541"/><polygon fill="#000" stroke="#000" points="146.247 -118.09 142.747 -108.09 139.247 -118.09 146.247 -118.09"/></g></g></svg>